# xmcd
#
# Track frame offsets:
#   150
#   8905
#   22559
#   44208
#   56029
#   60939
#   78360
#   98106
#   106774
#   113870
#   119146
#   124505
#   142109
#   155327
#   168753
#   188185
#   207131
#   214154
#   220579
#   230116
#   235868
#
# Disc length: 3262 seconds
#
# Revision: 0
# Processed by: cddbd v1.5.1PL2 Copyright (c) Steve Scherf et al.
# Submitted via: GXTranscoder 2.0.1939
#
DISCID=1e0cbc15
DTITLE=Burgaintzi - Burgaintzi
DYEAR=1900
DGENRE=Country
TTITLE0=FAndango Mikel
TTITLE1=Arin Quebec
TTITLE2=Mutxikoak
TTITLE3=Teilagorri
TTITLE4=Grabo
TTITLE5=Ainhoarrak
TTITLE6=Xoxuarrenak
TTITLE7=Fandango Xan
TTITLE8=Arin Bero
TTITLE9=Euskaldunak
TTITLE10=Sorginak
TTITLE11=Dantza Luzea
TTITLE12=Axuri Beltza
TTITLE13=Eztitxu balsa
TTITLE14=Egina
TTITLE15=Kolore
TTITLE16=Maitena1
TTITLE17=Maitena2
TTITLE18=Maitena3
TTITLE19=Maitena4
TTITLE20=Maitena5
EXTD=
EXTT0=
EXTT1=
EXTT2=
EXTT3=
EXTT4=
EXTT5=
EXTT6=
EXTT7=
EXTT8=
EXTT9=
EXTT10=
EXTT11=
EXTT12=
EXTT13=
EXTT14=
EXTT15=
EXTT16=
EXTT17=
EXTT18=
EXTT19=
EXTT20=
PLAYORDER=
